<svg width="28" height="19" viewBox="0 0 28 19" fill="none" xmlns="http://www.w3.org/2000/svg">
<path fill-rule="evenodd" clip-rule="evenodd" d="M15 18.183V13.6375H20.0012V18.183H15ZM7.5 18.183V13.6375H12.5V18.183H7.5ZM0 18.183V13.6375H5V18.183H0ZM15 11.3648V6.81932H20V11.3648H15ZM7.5 11.3648V6.81932H12.5V11.3648H7.5ZM0 11.3648V6.81932H5V11.3648H0ZM22.5 4.54659V0H27.5V4.54659H22.5ZM22.5 11.3648V6.81932H27.5V11.3648H22.5ZM15 4.54659V0H20.0012V4.54659H15ZM7.5 4.54659V0H12.5V4.54659H7.5Z" fill="#A8A8BE"/>
</svg>
