<svg width="12" height="10" viewBox="0 0 12 10" fill="none" xmlns="http://www.w3.org/2000/svg">
<path d="M11.4433 1.09236C11.3658 1.0103 11.2736 0.945159 11.1721 0.900709C11.0705 0.856259 10.9616 0.833374 10.8516 0.833374C10.7416 0.833374 10.6327 0.856259 10.5311 0.900709C10.4296 0.945159 10.3374 1.0103 10.2599 1.09236L4.0516 7.62392L1.44327 4.87471C1.36283 4.79307 1.26788 4.72888 1.16384 4.6858C1.05979 4.64272 0.948688 4.6216 0.836871 4.62363C0.725053 4.62566 0.614712 4.65081 0.512147 4.69765C0.409582 4.74449 0.316801 4.81209 0.239102 4.8966C0.161403 4.98111 0.100308 5.08087 0.0593049 5.19018C0.0183016 5.2995 -0.00180712 5.41623 0.000127432 5.53371C0.00206199 5.65119 0.0260018 5.76712 0.0705797 5.87488C0.115158 5.98264 0.179501 6.08012 0.259935 6.16176L3.45994 9.52385C3.5374 9.60591 3.62957 9.67104 3.73112 9.71549C3.83267 9.75994 3.94159 9.78283 4.0516 9.78283C4.16161 9.78283 4.27053 9.75994 4.37208 9.71549C4.47363 9.67104 4.5658 9.60591 4.64327 9.52385L11.4433 2.37941C11.5279 2.29742 11.5954 2.19791 11.6415 2.08716C11.6877 1.9764 11.7115 1.8568 11.7115 1.73588C11.7115 1.61497 11.6877 1.49537 11.6415 1.38461C11.5954 1.27385 11.5279 1.17435 11.4433 1.09236V1.09236Z" fill="white"/>
</svg>
