<svg width="16" height="17" viewBox="0 0 16 17" fill="none" xmlns="http://www.w3.org/2000/svg">
<rect y="0.565414" width="16" height="15.95" rx="7.975" fill="#61CDA6"/>
<path d="M12.4876 5.42407C12.4256 5.35862 12.3519 5.30668 12.2707 5.27123C12.1894 5.23578 12.1023 5.21753 12.0143 5.21753C11.9263 5.21753 11.8391 5.23578 11.7579 5.27123C11.6767 5.30668 11.6029 5.35862 11.541 5.42407L6.57429 10.633L4.48762 8.44049C4.42328 8.37539 4.34731 8.3242 4.26408 8.28984C4.18084 8.25549 4.09196 8.23864 4.0025 8.24026C3.91305 8.24188 3.82478 8.26194 3.74273 8.29929C3.66067 8.33664 3.58645 8.39055 3.52429 8.45795C3.46213 8.52535 3.41325 8.6049 3.38045 8.69208C3.34765 8.77926 3.33156 8.87236 3.33311 8.96605C3.33466 9.05974 3.35381 9.15219 3.38947 9.23813C3.42513 9.32407 3.47661 9.40181 3.54096 9.46692L6.10096 12.1482C6.16293 12.2136 6.23667 12.2656 6.31791 12.301C6.39914 12.3365 6.48628 12.3547 6.57429 12.3547C6.6623 12.3547 6.74943 12.3365 6.83067 12.301C6.91191 12.2656 6.98565 12.2136 7.04762 12.1482L12.4876 6.45049C12.5553 6.38511 12.6093 6.30575 12.6462 6.21742C12.6832 6.12909 12.7022 6.03371 12.7022 5.93728C12.7022 5.84085 12.6832 5.74547 12.6462 5.65714C12.6093 5.56881 12.5553 5.48945 12.4876 5.42407Z" fill="white"/>
</svg>
