<svg width="14" height="14" viewBox="0 0 14 14" fill="none" xmlns="http://www.w3.org/2000/svg">
<path d="M1 11V7.42108C1 6.31651 1.89543 5.42108 3 5.42108H3.8421C4.71413 5.42108 5.42105 6.128 5.42105 7.00003C5.42105 7.87206 6.12797 8.57898 7 8.57898C7.87203 8.57898 8.57895 9.2859 8.57895 10.1579V11C8.57895 12.1046 7.68352 13 6.57895 13H3C1.89543 13 1 12.1046 1 11Z" stroke="black" stroke-linecap="round" stroke-linejoin="round"/>
<path d="M5.42114 6.57895V3C5.42114 1.89543 6.31657 1 7.42114 1H11.0001C12.1047 1 13.0001 1.89543 13.0001 3V6.57895C13.0001 7.68352 12.1047 8.57895 11.0001 8.57895H7.42114C6.31657 8.57895 5.42114 7.68352 5.42114 6.57895Z" stroke="black" stroke-linecap="round" stroke-linejoin="round"/>
</svg>
