<svg width="12" height="15" viewBox="0 0 12 15" fill="none" xmlns="http://www.w3.org/2000/svg">
<path d="M11.3333 3.31096H8.66667V2.61315C8.66667 2.05794 8.45595 1.52546 8.08088 1.13287C7.70581 0.740272 7.1971 0.519714 6.66667 0.519714H5.33333C4.8029 0.519714 4.29419 0.740272 3.91912 1.13287C3.54405 1.52546 3.33333 2.05794 3.33333 2.61315V3.31096H0.666667C0.489856 3.31096 0.320286 3.38448 0.195262 3.51535C0.0702379 3.64621 0 3.82371 0 4.00878C0 4.19385 0.0702379 4.37134 0.195262 4.5022C0.320286 4.63307 0.489856 4.70659 0.666667 4.70659H1.33333V12.3825C1.33333 12.9377 1.54405 13.4702 1.91912 13.8628C2.29419 14.2554 2.8029 14.476 3.33333 14.476H8.66667C9.1971 14.476 9.70581 14.2554 10.0809 13.8628C10.456 13.4702 10.6667 12.9377 10.6667 12.3825V4.70659H11.3333C11.5101 4.70659 11.6797 4.63307 11.8047 4.5022C11.9298 4.37134 12 4.19385 12 4.00878C12 3.82371 11.9298 3.64621 11.8047 3.51535C11.6797 3.38448 11.5101 3.31096 11.3333 3.31096ZM4.66667 2.61315C4.66667 2.42808 4.7369 2.25059 4.86193 2.11972C4.98695 1.98886 5.15652 1.91534 5.33333 1.91534H6.66667C6.84348 1.91534 7.01305 1.98886 7.13807 2.11972C7.2631 2.25059 7.33333 2.42808 7.33333 2.61315V3.31096H4.66667V2.61315ZM9.33333 12.3825C9.33333 12.5676 9.2631 12.7451 9.13807 12.876C9.01305 13.0068 8.84348 13.0803 8.66667 13.0803H3.33333C3.15652 13.0803 2.98695 13.0068 2.86193 12.876C2.7369 12.7451 2.66667 12.5676 2.66667 12.3825V4.70659H9.33333V12.3825Z" fill="#A8A8BE"/>
</svg>
