<svg width="14" height="15" viewBox="0 0 14 15" fill="none" xmlns="http://www.w3.org/2000/svg">
<path d="M14 4.25653C14.0005 4.16469 13.9829 4.07365 13.948 3.98863C13.9132 3.90361 13.8619 3.82628 13.797 3.76108L10.829 0.80236C10.7636 0.737686 10.686 0.686519 10.6007 0.651793C10.5154 0.617066 10.4241 0.599464 10.332 0.599995C10.2399 0.599464 10.1485 0.617066 10.0633 0.651793C9.97797 0.686519 9.9004 0.737686 9.83499 0.80236L7.854 2.77717L0.203011 10.4042C0.138134 10.4694 0.0868069 10.5468 0.0519717 10.6318C0.0171366 10.7168 -0.000520924 10.8079 1.17e-05 10.8997V13.8584C1.17e-05 14.0435 0.0737613 14.221 0.205037 14.3518C0.336312 14.4827 0.514359 14.5562 0.70001 14.5562H3.66801C3.76595 14.5615 3.86393 14.5463 3.95558 14.5114C4.04723 14.4765 4.1305 14.4229 4.2 14.3539L11.809 6.72678L13.797 4.78686C13.8609 4.71923 13.9129 4.64139 13.951 4.55659C13.9577 4.50096 13.9577 4.44473 13.951 4.38911C13.9543 4.35663 13.9543 4.3239 13.951 4.29142L14 4.25653ZM3.38101 13.1606H1.40001V11.1858L8.351 4.25653L10.332 6.23133L3.38101 13.1606ZM11.319 5.24742L9.338 3.27261L10.332 2.2887L12.306 4.25653L11.319 5.24742Z" fill="#A8A8BE"/>
</svg>
