<svg width="18" height="19" viewBox="0 0 18 19" fill="none" xmlns="http://www.w3.org/2000/svg">
<path d="M6.71 4.28709L8 3.10527V13.6416C8 13.8827 8.10536 14.114 8.29289 14.2845C8.48043 14.4549 8.73478 14.5507 9 14.5507C9.26522 14.5507 9.51957 14.4549 9.70711 14.2845C9.89464 14.114 10 13.8827 10 13.6416V3.10527L11.29 4.28709C11.383 4.3723 11.4936 4.43993 11.6154 4.48608C11.7373 4.53223 11.868 4.556 12 4.556C12.132 4.556 12.2627 4.53223 12.3846 4.48608C12.5064 4.43993 12.617 4.3723 12.71 4.28709C12.8037 4.20258 12.8781 4.10203 12.9289 3.99125C12.9797 3.88047 13.0058 3.76165 13.0058 3.64163C13.0058 3.52162 12.9797 3.4028 12.9289 3.29202C12.8781 3.18124 12.8037 3.08069 12.71 2.99618L9.71 0.268908C9.61704 0.1837 9.50644 0.116069 9.38458 0.0699154C9.26272 0.023762 9.13201 0 9 0C8.86799 0 8.73728 0.023762 8.61542 0.0699154C8.49356 0.116069 8.38296 0.1837 8.29 0.268908L5.29 2.99618C5.1017 3.16737 4.99591 3.39954 4.99591 3.64163C4.99591 3.88373 5.1017 4.1159 5.29 4.28709C5.4783 4.45827 5.7337 4.55445 6 4.55445C6.2663 4.55445 6.5217 4.45827 6.71 4.28709V4.28709ZM15 6.36891H13C12.7348 6.36891 12.4804 6.46469 12.2929 6.63517C12.1054 6.80566 12 7.03689 12 7.278C12 7.5191 12.1054 7.75034 12.2929 7.92082C12.4804 8.09131 12.7348 8.18709 13 8.18709H15C15.2652 8.18709 15.5196 8.28287 15.7071 8.45336C15.8946 8.62384 16 8.85507 16 9.09618V15.4598C16 15.7009 15.8946 15.9322 15.7071 16.1026C15.5196 16.2731 15.2652 16.3689 15 16.3689H3C2.73478 16.3689 2.48043 16.2731 2.29289 16.1026C2.10536 15.9322 2 15.7009 2 15.4598V9.09618C2 8.85507 2.10536 8.62384 2.29289 8.45336C2.48043 8.28287 2.73478 8.18709 3 8.18709H5C5.26522 8.18709 5.51957 8.09131 5.70711 7.92082C5.89464 7.75034 6 7.5191 6 7.278C6 7.03689 5.89464 6.80566 5.70711 6.63517C5.51957 6.46469 5.26522 6.36891 5 6.36891H3C2.20435 6.36891 1.44129 6.65624 0.87868 7.16771C0.316071 7.67917 0 8.37286 0 9.09618V15.4598C0 16.1831 0.316071 16.8768 0.87868 17.3883C1.44129 17.8998 2.20435 18.1871 3 18.1871H15C15.7956 18.1871 16.5587 17.8998 17.1213 17.3883C17.6839 16.8768 18 16.1831 18 15.4598V9.09618C18 8.37286 17.6839 7.67917 17.1213 7.16771C16.5587 6.65624 15.7956 6.36891 15 6.36891Z" fill="white"/>
</svg>
