<svg width="18" height="18" viewBox="0 0 18 18" fill="none" xmlns="http://www.w3.org/2000/svg">
<path d="M9.9 7.86176H4.5C4.2613 7.86176 4.03239 7.9538 3.8636 8.11762C3.69482 8.28143 3.6 8.50362 3.6 8.73529C3.6 8.96697 3.69482 9.18915 3.8636 9.35297C4.03239 9.51679 4.2613 9.60882 4.5 9.60882H9.9C10.1387 9.60882 10.3676 9.51679 10.5364 9.35297C10.7052 9.18915 10.8 8.96697 10.8 8.73529C10.8 8.50362 10.7052 8.28143 10.5364 8.11762C10.3676 7.9538 10.1387 7.86176 9.9 7.86176ZM13.5 4.36765H4.5C4.2613 4.36765 4.03239 4.45968 3.8636 4.6235C3.69482 4.78732 3.6 5.0095 3.6 5.24118C3.6 5.47285 3.69482 5.69504 3.8636 5.85885C4.03239 6.02267 4.2613 6.11471 4.5 6.11471H13.5C13.7387 6.11471 13.9676 6.02267 14.1364 5.85885C14.3052 5.69504 14.4 5.47285 14.4 5.24118C14.4 5.0095 14.3052 4.78732 14.1364 4.6235C13.9676 4.45968 13.7387 4.36765 13.5 4.36765ZM15.3 0H2.7C1.98392 0 1.29716 0.276097 0.790812 0.767553C0.284464 1.25901 0 1.92556 0 2.62059V11.3559C0 12.0509 0.284464 12.7175 0.790812 13.2089C1.29716 13.7004 1.98392 13.9765 2.7 13.9765H13.131L16.461 17.2173C16.5451 17.2982 16.6448 17.3623 16.7545 17.4057C16.8641 17.4492 16.9816 17.4713 17.1 17.4706C17.2181 17.4735 17.3352 17.4496 17.442 17.4007C17.6064 17.3352 17.7471 17.2239 17.8463 17.0809C17.9457 16.9379 17.9991 16.7695 18 16.5971V2.62059C18 1.92556 17.7155 1.25901 17.2092 0.767553C16.7028 0.276097 16.0161 0 15.3 0ZM16.2 14.4919L14.139 12.4827C14.0549 12.4018 13.9552 12.3377 13.8455 12.2943C13.7359 12.2508 13.6184 12.2287 13.5 12.2294H2.7C2.46131 12.2294 2.23239 12.1374 2.0636 11.9736C1.89482 11.8097 1.8 11.5876 1.8 11.3559V2.62059C1.8 2.38891 1.89482 2.16673 2.0636 2.00291C2.23239 1.83909 2.46131 1.74706 2.7 1.74706H15.3C15.5387 1.74706 15.7676 1.83909 15.9364 2.00291C16.1052 2.16673 16.2 2.38891 16.2 2.62059V14.4919Z" fill="#60CDA6"/>
</svg>
