<svg width="14" height="14" viewBox="0 0 14 14" fill="none" xmlns="http://www.w3.org/2000/svg">
<path d="M7 3.5C6.81435 3.5 6.6363 3.57375 6.50503 3.70502C6.37375 3.8363 6.3 4.01435 6.3 4.2V7C6.3 7.18565 6.37375 7.3637 6.50503 7.49497C6.6363 7.62625 6.81435 7.7 7 7.7C7.18565 7.7 7.3637 7.62625 7.49498 7.49497C7.62625 7.3637 7.7 7.18565 7.7 7V4.2C7.7 4.01435 7.62625 3.8363 7.49498 3.70502C7.3637 3.57375 7.18565 3.5 7 3.5ZM7.644 9.534C7.62868 9.48939 7.60749 9.44702 7.581 9.408L7.497 9.303C7.39857 9.20587 7.27356 9.14007 7.13777 9.11391C7.00198 9.08775 6.86148 9.10239 6.734 9.156C6.64917 9.19145 6.57104 9.24117 6.503 9.303C6.43813 9.36841 6.3868 9.44598 6.35196 9.53126C6.31713 9.61655 6.29947 9.70787 6.3 9.8C6.30111 9.89147 6.32013 9.98184 6.356 10.066C6.38744 10.1529 6.4376 10.2318 6.50292 10.2971C6.56825 10.3624 6.64713 10.4126 6.734 10.444C6.81779 10.481 6.90839 10.5002 7 10.5002C7.09161 10.5002 7.18221 10.481 7.266 10.444C7.35287 10.4126 7.43176 10.3624 7.49708 10.2971C7.56241 10.2318 7.61256 10.1529 7.644 10.066C7.67987 9.98184 7.6989 9.89147 7.7 9.8C7.70344 9.7534 7.70344 9.7066 7.7 9.66C7.68795 9.61536 7.66906 9.57286 7.644 9.534ZM7 0C5.61553 0 4.26215 0.410543 3.11101 1.17971C1.95987 1.94888 1.06266 3.04213 0.532846 4.32122C0.00303299 5.6003 -0.13559 7.00776 0.134506 8.36563C0.404603 9.7235 1.07129 10.9708 2.05026 11.9497C3.02922 12.9287 4.2765 13.5954 5.63437 13.8655C6.99224 14.1356 8.3997 13.997 9.67879 13.4672C10.9579 12.9373 12.0511 12.0401 12.8203 10.889C13.5895 9.73785 14 8.38447 14 7C14 6.08075 13.8189 5.17049 13.4672 4.32122C13.1154 3.47194 12.5998 2.70026 11.9497 2.05025C11.2997 1.40024 10.5281 0.884626 9.67879 0.532843C8.82951 0.18106 7.91925 0 7 0ZM7 12.6C5.89243 12.6 4.80972 12.2716 3.88881 11.6562C2.96789 11.0409 2.25013 10.1663 1.82628 9.14303C1.40243 8.11976 1.29153 6.99379 1.50761 5.90749C1.72368 4.8212 2.25703 3.82338 3.0402 3.0402C3.82338 2.25703 4.8212 1.72368 5.9075 1.5076C6.99379 1.29153 8.11976 1.40242 9.14303 1.82627C10.1663 2.25013 11.0409 2.96789 11.6562 3.88881C12.2716 4.80972 12.6 5.89242 12.6 7C12.6 8.48521 12.01 9.90959 10.9598 10.9598C9.9096 12.01 8.48521 12.6 7 12.6Z" fill="#FF6C6C"/>
</svg>
