<svg width="25" height="30" viewBox="0 0 25 30" fill="none" xmlns="http://www.w3.org/2000/svg">
<path d="M0.0588379 14.9999C0.0588379 15.3977 0.216873 15.7792 0.498178 16.0605C0.779483 16.3418 1.16101 16.4999 1.55884 16.4999H12.9438L9.49384 19.9349C9.35324 20.0743 9.24165 20.2402 9.1655 20.423C9.08935 20.6058 9.05014 20.8019 9.05014 20.9999C9.05014 21.1979 9.08935 21.394 9.1655 21.5767C9.24165 21.7595 9.35324 21.9254 9.49384 22.0649C9.63328 22.2055 9.79918 22.3171 9.98197 22.3932C10.1648 22.4694 10.3608 22.5086 10.5588 22.5086C10.7569 22.5086 10.9529 22.4694 11.1357 22.3932C11.3185 22.3171 11.4844 22.2055 11.6238 22.0649L17.6238 16.0649C17.7604 15.9222 17.8674 15.754 17.9388 15.5699C18.0889 15.2047 18.0889 14.7951 17.9388 14.4299C17.8674 14.2458 17.7604 14.0775 17.6238 13.9349L11.6238 7.93488C11.484 7.79502 11.3179 7.68408 11.1352 7.60839C10.9525 7.5327 10.7566 7.49374 10.5588 7.49374C10.361 7.49374 10.1652 7.5327 9.98246 7.60839C9.79973 7.68408 9.6337 7.79502 9.49384 7.93488C9.35398 8.07474 9.24304 8.24077 9.16735 8.4235C9.09166 8.60624 9.0527 8.80209 9.0527 8.99988C9.0527 9.19767 9.09166 9.39352 9.16735 9.57625C9.24304 9.75899 9.35398 9.92502 9.49384 10.0649L12.9438 13.4999H1.55884C1.16101 13.4999 0.779483 13.6579 0.498178 13.9392C0.216873 14.2205 0.0588379 14.6021 0.0588379 14.9999ZM19.5588 -0.00012207H4.55884C3.36536 -0.00012207 2.22077 0.473984 1.37686 1.3179C0.532944 2.16181 0.0588379 3.3064 0.0588379 4.49988V8.99988C0.0588379 9.3977 0.216873 9.77923 0.498178 10.0605C0.779483 10.3418 1.16101 10.4999 1.55884 10.4999C1.95666 10.4999 2.33819 10.3418 2.6195 10.0605C2.9008 9.77923 3.05884 9.3977 3.05884 8.99988V4.49988C3.05884 4.10205 3.21687 3.72052 3.49818 3.43922C3.77948 3.15791 4.16101 2.99988 4.55884 2.99988H19.5588C19.9567 2.99988 20.3382 3.15791 20.6195 3.43922C20.9008 3.72052 21.0588 4.10205 21.0588 4.49988V25.4999C21.0588 25.8977 20.9008 26.2792 20.6195 26.5605C20.3382 26.8418 19.9567 26.9999 19.5588 26.9999H4.55884C4.16101 26.9999 3.77948 26.8418 3.49818 26.5605C3.21687 26.2792 3.05884 25.8977 3.05884 25.4999V20.9999C3.05884 20.6021 2.9008 20.2205 2.6195 19.9392C2.33819 19.6579 1.95666 19.4999 1.55884 19.4999C1.16101 19.4999 0.779483 19.6579 0.498178 19.9392C0.216873 20.2205 0.0588379 20.6021 0.0588379 20.9999V25.4999C0.0588379 26.6934 0.532944 27.8379 1.37686 28.6819C2.22077 29.5258 3.36536 29.9999 4.55884 29.9999H19.5588C20.7523 29.9999 21.8969 29.5258 22.7408 28.6819C23.5847 27.8379 24.0588 26.6934 24.0588 25.4999V4.49988C24.0588 3.3064 23.5847 2.16181 22.7408 1.3179C21.8969 0.473984 20.7523 -0.00012207 19.5588 -0.00012207Z" fill="#F5F5F5"/>
</svg>
