<svg width="140" height="42" viewBox="0 0 140 42" fill="none" xmlns="http://www.w3.org/2000/svg">
<path d="M42.8549 3.61236V31.6337C42.8549 33.6288 41.342 35.2461 39.4757 35.2461H10.5242C9.78058 35.2461 9.05911 35.5019 8.46277 35.9701L1.29205 41.6208C0.758298 42.0419 0 41.6326 0 40.9243V3.61236C0 1.6173 1.51292 0 3.37922 0H39.4757C41.342 0 42.8549 1.6173 42.8549 3.61236Z" fill="#95F5D3"/>
<path d="M49.4531 26.0083C49.8533 25.8005 50.1706 25.5246 50.405 25.1771C50.6718 24.7794 50.8052 24.3029 50.8052 23.7511C50.8052 23.1993 50.6718 22.7228 50.405 22.3144C50.1381 21.9095 49.7596 21.5978 49.2692 21.3829C48.7788 21.1643 48.1983 21.0532 47.5276 21.0532H44.0625V28.2046H46.4892V26.406H47.149L48.3713 28.2046H50.9602L49.4531 26.0083ZM46.4892 25.6823L46.3521 25.5425L46.4892 25.4171V25.6823ZM48.1189 24.3638C47.9567 24.5142 47.7079 24.5895 47.3726 24.5895H46.4892V22.9127H47.3726C47.7079 22.9127 47.9567 22.9879 48.1189 23.1384C48.2776 23.2889 48.3605 23.4932 48.3605 23.7511C48.3605 24.009 48.2776 24.2133 48.1189 24.3638Z" fill="white"/>
<path d="M57.7026 26.3881V28.2046H51.7207V21.0532H57.5692V22.8733H54.1041V23.7117H57.1473V25.4458H54.1041V26.3881H57.7026Z" fill="white"/>
<path d="M66.2227 21.0532L63.1794 28.2046H60.7959L57.7529 21.0532H60.3637L62.0764 25.2272L63.8392 21.0532H66.2227Z" fill="white"/>
<path d="M66.4609 28.2046V21.0532H68.8876V28.2046H66.4609Z" fill="white"/>
<path d="M76.0417 26.3881V28.2046H70.0596V21.0532H75.9081V22.8733H72.4431V23.7117H75.4863V25.4458H72.4431V26.3881H76.0417Z" fill="white"/>
<path d="M88.5827 21.0532L86.2785 28.2046H83.6792L82.5178 24.3817L81.2957 28.2046H78.6923L76.3916 21.0532H78.8871L80.1419 25.1197L81.4689 21.0532H83.7008L84.9555 25.1663L86.2785 21.0532H88.5827Z" fill="white"/>
<path d="M91.7983 28.3694C91.1963 28.3694 90.6118 28.3013 90.0495 28.1651C89.4871 28.029 89.0257 27.8534 88.6611 27.6349L89.444 25.8793C89.7864 26.0763 90.1685 26.234 90.5902 26.3558C91.012 26.474 91.4197 26.5349 91.8199 26.5349C92.0544 26.5349 92.2346 26.5206 92.3717 26.4884C92.5088 26.4561 92.6021 26.4131 92.6634 26.3558C92.7246 26.2984 92.7573 26.2268 92.7573 26.148C92.7573 26.019 92.685 25.9151 92.5409 25.8434C92.3968 25.7682 92.2055 25.7073 91.9716 25.6536C91.7336 25.6034 91.4775 25.5497 91.1963 25.4887C90.9151 25.4314 90.6334 25.3526 90.3487 25.2594C90.0641 25.1627 89.8045 25.0373 89.5665 24.8832C89.3285 24.7256 89.1406 24.5214 88.9965 24.2634C88.8525 24.009 88.7801 23.6901 88.7801 23.3068C88.7801 22.8625 88.9067 22.4612 89.1552 22.0958C89.4043 21.7303 89.7788 21.4401 90.2764 21.2216C90.774 21.003 91.3906 20.8955 92.1337 20.8955C92.6202 20.8955 93.0997 20.9457 93.5722 21.0496C94.0447 21.1499 94.47 21.3076 94.8486 21.519L94.1206 23.2674C93.7636 23.0918 93.4206 22.9592 93.0857 22.8697C92.7538 22.7801 92.4295 22.7371 92.1156 22.7371C91.8811 22.7371 91.6974 22.7586 91.5603 22.798C91.4232 22.8374 91.3258 22.8947 91.2681 22.9628C91.2103 23.0309 91.1817 23.1062 91.1817 23.1886C91.1817 23.3103 91.2541 23.4071 91.3981 23.4788C91.5422 23.5504 91.7335 23.6113 91.9675 23.6579C92.202 23.7045 92.4651 23.7582 92.7503 23.812C93.035 23.8657 93.3161 23.941 93.5973 24.0377C93.8791 24.1344 94.1386 24.2598 94.3726 24.4139C94.6105 24.5715 94.7984 24.7758 94.9425 25.0265C95.0866 25.2773 95.1589 25.5926 95.1589 25.9652C95.1589 26.4023 95.0323 26.8001 94.7838 27.1655C94.5347 27.531 94.1637 27.8212 93.6696 28.0433C93.1755 28.2654 92.5555 28.3765 91.8088 28.3765L91.7983 28.3694Z" fill="white"/>
<path d="M53.9602 16.4035V19.413H44.0625V7.58252H53.7403V10.5921H48.0072V11.9787H53.0408V14.8521H48.0072V16.4035H53.9602Z" fill="#95F5D3"/>
<path d="M59.9457 19.6821C58.9465 19.6821 57.984 19.571 57.0537 19.3453C56.1234 19.1195 55.359 18.8258 54.7568 18.4675L56.0477 15.5618C56.6138 15.8878 57.2448 16.1494 57.9443 16.3465C58.6402 16.5435 59.318 16.6438 59.9778 16.6438C60.364 16.6438 60.6667 16.6187 60.8866 16.5686C61.1065 16.5184 61.2687 16.4432 61.3696 16.35C61.4705 16.2569 61.5213 16.1386 61.5213 16.0025C61.5213 15.7876 61.4023 15.6191 61.1643 15.4973C60.9263 15.3719 60.6125 15.268 60.2193 15.1856C59.8267 15.0996 59.4009 15.0101 58.936 14.9169C58.4705 14.8201 58.002 14.6947 57.5332 14.5371C57.0609 14.3794 56.6318 14.1716 56.2424 13.9101C55.853 13.6521 55.5356 13.3118 55.2977 12.889C55.0597 12.4662 54.9407 11.9396 54.9407 11.309C54.9407 10.5781 55.1462 9.90805 55.5609 9.30615C55.9755 8.70424 56.5921 8.22056 57.4143 7.86228C58.2364 7.50043 59.2603 7.32129 60.483 7.32129C61.2868 7.32129 62.0801 7.40725 62.8624 7.57562C63.6452 7.74405 64.3481 8.0056 64.9717 8.35312L63.7642 11.2409C63.1727 10.9471 62.6028 10.7285 62.055 10.5816C61.5032 10.4348 60.9695 10.3631 60.4468 10.3631C60.0606 10.3631 59.7544 10.3953 59.5275 10.4634C59.3 10.5315 59.1378 10.6211 59.0439 10.7321C58.9465 10.8432 58.8998 10.9686 58.8998 11.1048C58.8998 11.309 59.0188 11.4666 59.2568 11.5848C59.4948 11.7031 59.8086 11.8034 60.2012 11.8822C60.5909 11.961 61.0237 12.047 61.4921 12.1366C61.9611 12.2262 62.4301 12.3516 62.895 12.5092C63.36 12.6669 63.7893 12.8746 64.1784 13.1362C64.568 13.3942 64.8854 13.7346 65.1234 14.1502C65.3614 14.5657 65.4804 15.0853 65.4804 15.7051C65.4804 16.4253 65.275 17.0881 64.8603 17.69C64.4455 18.2919 63.8325 18.7792 63.014 19.1446C62.1991 19.5101 61.1713 19.6929 59.9346 19.6929L59.9457 19.6821Z" fill="#95F5D3"/>
<path d="M77.1737 9.67128C76.7298 9.00129 76.1027 8.48535 75.2912 8.12351C74.4833 7.76522 73.5208 7.58252 72.4102 7.58252H66.6807V19.413H70.694V16.5074H72.4102C73.5208 16.5074 74.4833 16.3246 75.2912 15.9556C76.1027 15.5901 76.7298 15.0742 77.1737 14.4114C77.6135 13.745 77.8369 12.9567 77.8369 12.0467C77.8369 11.1367 77.6135 10.3413 77.1737 9.67128ZM70.694 15.239L70.4706 15.0133L70.694 14.7983V15.239ZM73.3872 13.0606C73.1207 13.3079 72.7094 13.4297 72.1541 13.4297H70.694V10.6602H72.1541C72.7094 10.6602 73.1207 10.782 73.3872 11.0328C73.6544 11.28 73.7874 11.6168 73.7874 12.0467C73.7874 12.4767 73.6544 12.8099 73.3872 13.0606Z" fill="#95F5D3"/>
<path d="M85.5717 19.682C84.5981 19.682 83.6969 19.5315 82.8744 19.227C82.0524 18.9224 81.3419 18.4924 80.7399 17.9335C80.1379 17.3746 79.6724 16.7189 79.337 15.9665C79.0022 15.2106 78.8359 14.3901 78.8359 13.4979C78.8359 12.6058 79.0022 11.771 79.337 11.0222C79.6724 10.2734 80.1379 9.62135 80.7399 9.06243C81.3419 8.5035 82.0524 8.07352 82.8744 7.76899C83.6969 7.46446 84.5911 7.31396 85.5536 7.31396C86.5161 7.31396 87.4249 7.46446 88.2399 7.76899C89.0548 8.07352 89.7653 8.5035 90.3673 9.06243C90.9693 9.62135 91.4348 10.2734 91.7696 11.0222C92.105 11.771 92.2713 12.5951 92.2713 13.4979C92.2713 14.4008 92.105 15.2106 91.7696 15.9665C91.4348 16.7225 90.9693 17.3782 90.3673 17.9335C89.7653 18.4924 89.0583 18.9224 88.2399 19.227C87.4249 19.5315 86.5342 19.682 85.5717 19.682ZM85.5536 16.4538C85.9287 16.4538 86.2746 16.3857 86.5989 16.2496C86.9239 16.1135 87.205 15.9199 87.45 15.6656C87.6956 15.4112 87.8829 15.1031 88.0199 14.7376C88.157 14.3722 88.2253 13.9566 88.2253 13.4944C88.2253 13.0322 88.157 12.6202 88.0199 12.2512C87.8829 11.8857 87.6956 11.574 87.45 11.3232C87.205 11.0688 86.9239 10.8753 86.5989 10.7392C86.2746 10.603 85.9287 10.535 85.5536 10.535C85.1785 10.535 84.8326 10.603 84.5077 10.7392C84.1833 10.8753 83.9022 11.0688 83.6572 11.3232C83.4116 11.5776 83.2244 11.8857 83.0873 12.2512C82.9502 12.6166 82.8819 13.0322 82.8819 13.4944C82.8819 13.9566 82.9502 14.3686 83.0873 14.7376C83.2244 15.1031 83.4116 15.4148 83.6572 15.6656C83.9022 15.9199 84.1833 16.1135 84.5077 16.2496C84.8326 16.3857 85.1785 16.4538 85.5536 16.4538Z" fill="#95F5D3"/>
<path d="M105.471 7.58252V19.413H102.172L97.6468 14.0316V19.413H93.7344V7.58252H97.0337L101.559 12.9639V7.58252H105.471Z" fill="#95F5D3"/>
<path d="M111.847 19.6821C110.848 19.6821 109.885 19.571 108.955 19.3453C108.025 19.1195 107.26 18.8258 106.658 18.4675L107.949 15.5618C108.515 15.8878 109.146 16.1494 109.846 16.3465C110.541 16.5435 111.219 16.6438 111.879 16.6438C112.265 16.6438 112.568 16.6187 112.788 16.5686C113.008 16.5184 113.17 16.4432 113.271 16.35C113.372 16.2533 113.423 16.1386 113.423 16.0025C113.423 15.7876 113.304 15.6191 113.066 15.4973C112.828 15.3719 112.514 15.268 112.121 15.1856C111.731 15.0996 111.302 15.0101 110.837 14.9169C110.372 14.8201 109.903 14.6947 109.434 14.5371C108.962 14.3794 108.533 14.1716 108.144 13.9101C107.754 13.6521 107.437 13.3118 107.199 12.889C106.961 12.4662 106.842 11.9396 106.842 11.309C106.842 10.5781 107.047 9.90805 107.462 9.30615C107.877 8.70424 108.493 8.22056 109.316 7.86228C110.138 7.50043 111.162 7.32129 112.384 7.32129C113.188 7.32129 113.981 7.40725 114.764 7.57562C115.546 7.74405 116.249 8.0056 116.873 8.35312L115.665 11.2409C115.074 10.9471 114.508 10.7285 113.956 10.5816C113.404 10.4348 112.871 10.3631 112.348 10.3631C111.962 10.3631 111.656 10.3953 111.429 10.4634C111.201 10.5315 111.039 10.6211 110.945 10.7321C110.848 10.8432 110.801 10.9686 110.801 11.1048C110.801 11.309 110.92 11.4666 111.158 11.5848C111.396 11.7031 111.71 11.8034 112.103 11.8822C112.492 11.961 112.925 12.047 113.394 12.1366C113.862 12.2262 114.331 12.3516 114.796 12.5092C115.261 12.6669 115.691 12.8746 116.08 13.1362C116.469 13.3942 116.787 13.7346 117.025 14.1502C117.263 14.5657 117.382 15.0853 117.382 15.7051C117.382 16.4253 117.176 17.0881 116.762 17.69C116.347 18.2919 115.734 18.7792 114.915 19.1446C114.1 19.5101 113.073 19.6929 111.836 19.6929L111.847 19.6821Z" fill="#95F5D3"/>
<path d="M128.48 16.4035V19.413H118.582V7.58252H128.257V10.5921H122.527V11.9787H127.561V14.8521H122.527V16.4035H128.48Z" fill="#95F5D3"/>
<path d="M134.465 19.6821C133.466 19.6821 132.503 19.571 131.573 19.3453C130.643 19.1195 129.878 18.8258 129.276 18.4675L130.567 15.5618C131.133 15.8878 131.768 16.1494 132.464 16.3465C133.16 16.5435 133.837 16.6438 134.497 16.6438C134.883 16.6438 135.186 16.6187 135.406 16.5686C135.626 16.5184 135.788 16.4432 135.889 16.35C135.99 16.2533 136.041 16.1386 136.041 16.0025C136.041 15.7876 135.922 15.6191 135.684 15.4973C135.446 15.3719 135.132 15.268 134.739 15.1856C134.35 15.0996 133.92 15.0101 133.455 14.9169C132.99 14.8201 132.521 14.6947 132.053 14.5371C131.584 14.3794 131.151 14.1716 130.762 13.9101C130.372 13.6521 130.055 13.3118 129.817 12.889C129.579 12.4662 129.46 11.9396 129.46 11.309C129.46 10.5781 129.666 9.90805 130.08 9.30615C130.495 8.70424 131.112 8.22056 131.934 7.86228C132.756 7.50043 133.78 7.32129 135.002 7.32129C135.806 7.32129 136.6 7.40725 137.382 7.57562C138.165 7.74405 138.868 8.0056 139.491 8.35312L138.284 11.2409C137.692 10.9471 137.126 10.7285 136.574 10.5816C136.023 10.4348 135.489 10.3631 134.966 10.3631C134.581 10.3631 134.274 10.3953 134.047 10.4634C133.819 10.5315 133.657 10.6211 133.563 10.7321C133.466 10.8432 133.419 10.9686 133.419 11.1048C133.419 11.309 133.538 11.4666 133.776 11.5848C134.014 11.7031 134.328 11.8034 134.721 11.8822C135.11 11.961 135.543 12.047 136.012 12.1366C136.481 12.2262 136.95 12.3516 137.414 12.5092C137.879 12.6669 138.309 12.8746 138.698 13.1362C139.087 13.3942 139.405 13.7346 139.643 14.1502C139.881 14.5657 140 15.0853 140 15.7051C140 16.4253 139.794 17.0881 139.38 17.69C138.965 18.2919 138.352 18.7792 137.533 19.1446C136.719 19.5101 135.691 19.6929 134.454 19.6929L134.465 19.6821Z" fill="#95F5D3"/>
<path d="M36.7014 22.0796C38.0968 21.3738 39.1966 20.4207 40.0006 19.2169C40.9273 17.8411 41.3852 16.2002 41.3852 14.2941C41.3852 12.388 40.9273 10.7327 40.0006 9.33543C39.0776 7.93454 37.7723 6.85968 36.0776 6.10728C34.3829 5.35488 32.3781 4.9751 30.056 4.9751H18.085V29.6824H26.4683V23.4697H28.7471L32.9695 29.6824H41.9153L36.6978 22.0832L36.7014 22.0796ZM32.1005 16.408C31.5452 16.9275 30.687 17.189 29.526 17.189H26.4719V11.3991H29.526C30.687 11.3991 31.5452 11.6607 32.1005 12.173C32.6558 12.6925 32.937 13.3984 32.937 14.2941C32.937 15.1898 32.6558 15.8956 32.1005 16.408Z" fill="#4B4AEF"/>
<path d="M5.93818 5.97021H18.419V7.96025H5.93818C5.67518 7.96025 5.46289 7.63738 5.46289 7.23745V6.69297C5.46289 6.29304 5.67518 5.97021 5.93818 5.97021Z" fill="#4B4AEF"/>
<path d="M5.93818 15.9204H18.419V17.9105H5.93818C5.67518 17.9105 5.46289 17.5876 5.46289 17.1876V16.6432C5.46289 16.2432 5.67518 15.9204 5.93818 15.9204Z" fill="#4B4AEF"/>
<path d="M5.93818 25.8706H18.419V27.8606H5.93818C5.67518 27.8606 5.46289 27.5378 5.46289 27.1379V26.5934C5.46289 26.1934 5.67518 25.8706 5.93818 25.8706Z" fill="#4B4AEF"/>
<path d="M5.93818 20.8955H18.419V22.8855H5.93818C5.67518 22.8855 5.46289 22.5627 5.46289 22.1628V21.6183C5.46289 21.2184 5.67518 20.8955 5.93818 20.8955Z" fill="#4B4AEF"/>
<path d="M5.93818 10.9453H18.419V12.9354H5.93818C5.67518 12.9354 5.46289 12.6125 5.46289 12.2125V11.6681C5.46289 11.2681 5.67518 10.9453 5.93818 10.9453Z" fill="#4B4AEF"/>
</svg>
