<svg width="16" height="16" viewBox="0 0 16 16" fill="none" xmlns="http://www.w3.org/2000/svg">
<g clip-path="url(#clip0_1_748)">
<rect width="16" height="16" rx="3" fill="white"/>
<path d="M16 0H0V16H16V0Z" fill="#005BFF"/>
<path d="M3.39992 8.66795C3.7107 8.63511 3.96175 8.42586 4.0014 8.16664C4.01524 8.07816 4.00452 7.98821 3.97004 7.90374C3.93557 7.81926 3.87827 7.74252 3.80257 7.67942C3.72687 7.61633 3.6348 7.56858 3.53344 7.53984C3.43209 7.51111 3.32417 7.50217 3.21802 7.51371C2.90699 7.54676 2.65594 7.756 2.61654 8.01502C2.6027 8.1035 2.61342 8.19345 2.6479 8.27792C2.68237 8.3624 2.73967 8.43914 2.81537 8.50223C2.89107 8.56533 2.98314 8.61308 3.0845 8.64181C3.18585 8.67055 3.29377 8.67949 3.39992 8.66795ZM3.4423 7.00558C3.7415 7.03183 4.02082 7.1429 4.23356 7.32021C4.4463 7.49752 4.57956 7.73032 4.61106 7.9797C4.69309 8.6696 4.00313 9.24466 3.17514 9.17629C2.87598 9.14999 2.59672 9.0389 2.38403 8.8616C2.17135 8.68429 2.03812 8.45151 2.00664 8.20216C1.9246 7.51226 2.61456 6.93721 3.4423 7.00558ZM5.3134 7.04875H7.22935C7.30221 7.04875 7.34335 7.11815 7.29949 7.16649L5.97386 8.62416H7.0125C7.20184 8.62416 7.35079 8.76772 7.31163 8.93131C7.28288 9.05132 7.14782 9.13312 7.0011 9.13312H4.92034C4.84823 9.13312 4.80733 9.06433 4.8507 9.01662L6.17732 7.5577H5.3248C5.17808 7.5577 5.04302 7.4757 5.01427 7.3559C4.97487 7.1923 5.12406 7.04875 5.3134 7.04875ZM13.6283 7.05453C13.826 7.01983 14 7.14459 14 7.30323V9.05958C14 9.12093 13.915 9.15501 13.8575 9.11701L12.2047 8.02411V8.87905C12.2047 9.03769 12.0308 9.16245 11.833 9.12775C11.6912 9.10296 11.5941 8.99286 11.5941 8.87224V7.12208C11.5941 7.06073 11.6791 7.02665 11.7366 7.06465L13.3896 8.15755V7.31004C13.3896 7.18941 13.487 7.07952 13.6285 7.05453H13.6283ZM9.32473 7C10.3366 7 11.1569 7.4883 11.1569 8.09062C11.1569 8.69294 10.3366 9.18124 9.32473 9.18124C8.31285 9.18124 7.49255 8.69294 7.49255 8.09062C7.49255 7.4883 8.31285 7 9.32473 7ZM9.32473 7.50896C8.62561 7.50896 8.10319 7.81611 8.10319 8.09062C8.10319 8.36514 8.62561 8.67229 9.32473 8.67229C10.0239 8.67229 10.5463 8.36534 10.5463 8.09062C10.5463 7.8159 10.0239 7.50896 9.32473 7.50896Z" fill="white"/>
</g>
<defs>
<clipPath id="clip0_1_748">
<rect width="16" height="16" rx="3" fill="white"/>
</clipPath>
</defs>
</svg>
