<svg width="15" height="15" viewBox="0 0 15 15" fill="none" xmlns="http://www.w3.org/2000/svg">
<path d="M14.6306 6.60107L8.3857 0.356218C8.26692 0.242511 8.12686 0.153378 7.97354 0.0939338C7.66947 -0.0309858 7.3284 -0.0309858 7.02433 0.0939338C6.87101 0.153378 6.73095 0.242511 6.61216 0.356218L0.367312 6.60107C0.25086 6.71752 0.158485 6.85577 0.0954616 7.00792C0.0324381 7.16008 0 7.32315 0 7.48784C0 7.82044 0.132126 8.13942 0.367312 8.37461C0.602498 8.6098 0.921478 8.74192 1.25408 8.74192C1.58668 8.74192 1.90566 8.6098 2.14085 8.37461L6.24996 4.25301V13.7327C6.24996 14.0639 6.38155 14.3816 6.61578 14.6158C6.85001 14.8501 7.16769 14.9817 7.49893 14.9817C7.83018 14.9817 8.14786 14.8501 8.38209 14.6158C8.61632 14.3816 8.7479 14.0639 8.7479 13.7327V4.25301L12.857 8.37461C12.9731 8.49167 13.1113 8.58459 13.2635 8.648C13.4157 8.71141 13.5789 8.74405 13.7438 8.74405C13.9087 8.74405 14.0719 8.71141 14.2241 8.648C14.3763 8.58459 14.5144 8.49167 14.6306 8.37461C14.7476 8.2585 14.8405 8.12036 14.9039 7.96817C14.9674 7.81597 15 7.65272 15 7.48784C15 7.32296 14.9674 7.15971 14.9039 7.00751C14.8405 6.85532 14.7476 6.71718 14.6306 6.60107Z" fill="white"/>
</svg>
