<svg width="50" height="50" viewBox="0 0 50 50" fill="none" xmlns="http://www.w3.org/2000/svg">
<circle cx="25" cy="25" r="25" fill="#FAFAFF"/>
<path d="M30.5701 26.064C32.048 24.9076 33.1267 23.3219 33.6561 21.5275C34.1856 19.7331 34.1395 17.8191 33.5243 16.052C32.9091 14.2848 31.7553 12.7522 30.2235 11.6676C28.6917 10.5829 26.8581 10 24.9776 10C23.0972 10 21.2636 10.5829 19.7318 11.6676C18.2 12.7522 17.0462 14.2848 16.431 16.052C15.8157 17.8191 15.7697 19.7331 16.2991 21.5275C16.8286 23.3219 17.9073 24.9076 19.3852 26.064C16.8528 27.073 14.6433 28.7465 12.9921 30.9061C11.3409 33.0657 10.3099 35.6304 10.0091 38.3269C9.98732 38.5238 10.0047 38.723 10.0604 38.9132C10.116 39.1033 10.2088 39.2807 10.3334 39.4353C10.585 39.7473 10.9509 39.9472 11.3507 39.991C11.7505 40.0347 12.1514 39.9187 12.4651 39.6685C12.7789 39.4183 12.9799 39.0543 13.0239 38.6567C13.3549 35.7262 14.76 33.0197 16.9706 31.0543C19.1813 29.0889 22.0426 28.0024 25.0078 28.0024C27.973 28.0024 30.8343 29.0889 33.045 31.0543C35.2556 33.0197 36.6607 35.7262 36.9917 38.6567C37.0327 39.0251 37.2094 39.3653 37.4878 39.6117C37.7662 39.8581 38.1264 39.9932 38.4991 39.991H38.6649C39.06 39.9457 39.4212 39.747 39.6697 39.4381C39.9182 39.1293 40.0338 38.7352 39.9914 38.3419C39.6892 35.6378 38.6527 33.0664 36.993 30.9035C35.3333 28.7406 33.113 27.0676 30.5701 26.064V26.064ZM24.9776 24.9996C23.7851 24.9996 22.6193 24.6479 21.6278 23.989C20.6362 23.3301 19.8634 22.3936 19.407 21.2978C18.9506 20.2021 18.8312 18.9964 19.0639 17.8332C19.2965 16.67 19.8708 15.6015 20.7141 14.7629C21.5573 13.9242 22.6317 13.3531 23.8013 13.1217C24.971 12.8904 26.1833 13.0091 27.2851 13.463C28.3869 13.9168 29.3286 14.6854 29.9911 15.6716C30.6536 16.6577 31.0073 17.817 31.0073 19.0031C31.0073 20.5934 30.372 22.1187 29.2412 23.2433C28.1105 24.3678 26.5768 24.9996 24.9776 24.9996Z" fill="#4B4AEF"/>
</svg>
