<svg width="16" height="16" viewBox="0 0 16 16" fill="none" xmlns="http://www.w3.org/2000/svg">
<path d="M5.6 8.8H7.2V10.4C7.2 10.6122 7.28429 10.8157 7.43431 10.9657C7.58434 11.1157 7.78783 11.2 8 11.2C8.21217 11.2 8.41566 11.1157 8.56569 10.9657C8.71571 10.8157 8.8 10.6122 8.8 10.4V8.8H10.4C10.6122 8.8 10.8157 8.71571 10.9657 8.56569C11.1157 8.41566 11.2 8.21217 11.2 8C11.2 7.78783 11.1157 7.58434 10.9657 7.43431C10.8157 7.28429 10.6122 7.2 10.4 7.2H8.8V5.6C8.8 5.38783 8.71571 5.18434 8.56569 5.03431C8.41566 4.88429 8.21217 4.8 8 4.8C7.78783 4.8 7.58434 4.88429 7.43431 5.03431C7.28429 5.18434 7.2 5.38783 7.2 5.6V7.2H5.6C5.38783 7.2 5.18434 7.28429 5.03431 7.43431C4.88429 7.58434 4.8 7.78783 4.8 8C4.8 8.21217 4.88429 8.41566 5.03431 8.56569C5.18434 8.71571 5.38783 8.8 5.6 8.8ZM15.2 0H0.8C0.587827 0 0.384344 0.0842854 0.234315 0.234315C0.0842854 0.384344 0 0.587827 0 0.8V15.2C0 15.4122 0.0842854 15.6157 0.234315 15.7657C0.384344 15.9157 0.587827 16 0.8 16H15.2C15.4122 16 15.6157 15.9157 15.7657 15.7657C15.9157 15.6157 16 15.4122 16 15.2V0.8C16 0.587827 15.9157 0.384344 15.7657 0.234315C15.6157 0.0842854 15.4122 0 15.2 0ZM14.4 14.4H1.6V1.6H14.4V14.4Z" fill="#61CDA6"/>
</svg>
