<svg width="15" height="10" viewBox="0 0 15 10" fill="none" xmlns="http://www.w3.org/2000/svg">
<path d="M14.5791 0.45378C14.3125 0.163516 13.9519 0 13.5759 0C13.2 0 12.8394 0.163516 12.5728 0.45378L7.46445 5.97927L2.42722 0.45378C2.1606 0.163516 1.8 0 1.4241 0C1.04813 0 0.687527 0.163516 0.420902 0.45378C0.287552 0.599286 0.181648 0.771796 0.109423 0.961555C0.0371977 1.15206 0 1.35607 0 1.56233C0 1.76859 0.0371977 1.97259 0.109423 2.16235C0.181648 2.35286 0.287552 2.52537 0.420902 2.67012L6.45412 9.28844C6.58642 9.4347 6.74378 9.55095 6.91718 9.63045C7.09058 9.70995 7.27657 9.75046 7.46445 9.75046C7.65225 9.75046 7.83825 9.70995 8.01165 9.63045C8.18505 9.55095 8.3424 9.4347 8.4747 9.28844L14.5791 2.67012C14.7124 2.52537 14.8184 2.35286 14.8906 2.16235C14.9628 1.97259 15 1.76859 15 1.56233C15 1.35607 14.9628 1.15206 14.8906 0.961555C14.8184 0.771796 14.7124 0.599286 14.5791 0.45378Z" fill="#A8A8BE"/>
</svg>
