<svg width="17" height="19" viewBox="0 0 17 19" fill="none" xmlns="http://www.w3.org/2000/svg">
<path d="M14.1667 4.58807H13.8361C14.0516 4.15977 14.1647 3.68972 14.1667 3.21307C14.1695 2.57445 13.9754 1.94962 13.6093 1.419C13.2431 0.888375 12.7218 0.476253 12.1123 0.235678C11.5028 -0.00489711 10.833 -0.0629139 10.1892 0.0690954C9.54548 0.201105 8.95716 0.517098 8.5 0.976401C8.04284 0.517098 7.45451 0.201105 6.81075 0.0690954C6.16698 -0.0629139 5.49724 -0.00489711 4.88774 0.235678C4.27824 0.476253 3.75686 0.888375 3.39073 1.419C3.0246 1.94962 2.83047 2.57445 2.83333 3.21307C2.83535 3.68972 2.94835 4.15977 3.16389 4.58807H2.83333C2.08189 4.58807 1.36122 4.8778 0.829864 5.39352C0.298511 5.90925 0 6.60872 0 7.33807V9.1714C0 9.41452 0.0995036 9.64767 0.276621 9.81958C0.453739 9.99149 0.693962 10.0881 0.944444 10.0881H1.88889V15.5881C1.88889 16.3174 2.1874 17.0169 2.71875 17.5326C3.25011 18.0483 3.97078 18.3381 4.72222 18.3381H12.2778C13.0292 18.3381 13.7499 18.0483 14.2812 17.5326C14.8126 17.0169 15.1111 16.3174 15.1111 15.5881V10.0881H16.0556C16.306 10.0881 16.5463 9.99149 16.7234 9.81958C16.9005 9.64767 17 9.41452 17 9.1714V7.33807C17 6.60872 16.7015 5.90925 16.1701 5.39352C15.6388 4.8778 14.9181 4.58807 14.1667 4.58807ZM7.55556 16.5047H4.72222C4.47174 16.5047 4.23152 16.4082 4.0544 16.2362C3.87728 16.0643 3.77778 15.8312 3.77778 15.5881V10.0881H7.55556V16.5047ZM7.55556 8.25473H1.88889V7.33807C1.88889 7.09495 1.98839 6.86179 2.16551 6.68989C2.34263 6.51798 2.58285 6.4214 2.83333 6.4214H7.55556V8.25473ZM7.55556 4.58807H6.13889C5.8587 4.58807 5.5848 4.50743 5.35183 4.35634C5.11886 4.20525 4.93728 3.99051 4.83006 3.73926C4.72284 3.48801 4.69478 3.21154 4.74944 2.94482C4.80411 2.67809 4.93903 2.43309 5.13715 2.2408C5.33528 2.0485 5.5877 1.91754 5.86251 1.86449C6.13732 1.81143 6.42216 1.83866 6.68102 1.94273C6.93989 2.0468 7.16114 2.22304 7.3168 2.44916C7.47247 2.67528 7.55556 2.94112 7.55556 3.21307V4.58807ZM9.44444 3.21307C9.44444 2.94112 9.52753 2.67528 9.6832 2.44916C9.83886 2.22304 10.0601 2.0468 10.319 1.94273C10.5778 1.83866 10.8627 1.81143 11.1375 1.86449C11.4123 1.91754 11.6647 2.0485 11.8628 2.2408C12.061 2.43309 12.1959 2.67809 12.2506 2.94482C12.3052 3.21154 12.2772 3.48801 12.1699 3.73926C12.0627 3.99051 11.8811 4.20525 11.6482 4.35634C11.4152 4.50743 11.1413 4.58807 10.8611 4.58807H9.44444V3.21307ZM13.2222 15.5881C13.2222 15.8312 13.1227 16.0643 12.9456 16.2362C12.7685 16.4082 12.5283 16.5047 12.2778 16.5047H9.44444V10.0881H13.2222V15.5881ZM15.1111 8.25473H9.44444V6.4214H14.1667C14.4171 6.4214 14.6574 6.51798 14.8345 6.68989C15.0116 6.86179 15.1111 7.09495 15.1111 7.33807V8.25473Z" fill="#A8A8BE"/>
</svg>
