<svg width="14" height="14" viewBox="0 0 14 14" fill="none" xmlns="http://www.w3.org/2000/svg">
<path d="M13.3642 10.3741L11.9063 8.88649C11.5927 8.58949 11.1971 8.39271 10.7703 8.32144C10.3436 8.25017 9.90522 8.30766 9.51154 8.48652L8.87764 7.85499C9.62462 6.86063 9.96576 5.62127 9.83239 4.38639C9.69902 3.15152 9.10104 2.01282 8.15881 1.19954C7.21659 0.386257 6.0001 -0.0412288 4.75423 0.00313771C3.50835 0.0475043 2.3256 0.560429 1.44407 1.43866C0.562536 2.31689 0.0476829 3.49521 0.00314951 4.73642C-0.0413838 5.97763 0.38771 7.18956 1.20405 8.12825C2.02039 9.06694 3.16337 9.66269 4.40288 9.79556C5.6424 9.92844 6.88642 9.58857 7.88453 8.84438L8.51138 9.46889C8.31071 9.86159 8.23879 10.3071 8.30576 10.7427C8.37274 11.1783 8.57522 11.5819 8.88468 11.8968L10.3779 13.3844C10.7741 13.7786 11.3111 14 11.8711 14C12.431 14 12.9681 13.7786 13.3642 13.3844C13.5655 13.1883 13.7254 12.9542 13.8346 12.6957C13.9438 12.4372 14 12.1596 14 11.8792C14 11.5988 13.9438 11.3212 13.8346 11.0627C13.7254 10.8043 13.5655 10.5701 13.3642 10.3741ZM7.39149 7.39889C6.89862 7.88867 6.27111 8.22194 5.58821 8.3566C4.90532 8.49126 4.19768 8.42126 3.5547 8.15545C2.91172 7.88964 2.36223 7.43994 1.97566 6.86317C1.58909 6.2864 1.38277 5.60842 1.38277 4.91488C1.38277 4.22135 1.58909 3.54337 1.97566 2.9666C2.36223 2.38982 2.91172 1.94013 3.5547 1.67432C4.19768 1.40851 4.90532 1.33851 5.58821 1.47317C6.27111 1.60783 6.89862 1.9411 7.39149 2.43088C7.71945 2.75679 7.97965 3.14395 8.15719 3.5702C8.33473 3.99644 8.42612 4.4534 8.42612 4.91488C8.42612 5.37637 8.33473 5.83332 8.15719 6.25957C7.97965 6.68582 7.71945 7.07298 7.39149 7.39889ZM12.3711 12.3599C12.3057 12.4257 12.2278 12.4779 12.1419 12.5135C12.0561 12.5491 11.964 12.5674 11.8711 12.5674C11.7781 12.5674 11.686 12.5491 11.6002 12.5135C11.5144 12.4779 11.4365 12.4257 11.371 12.3599L9.87779 10.8723C9.81178 10.8071 9.75938 10.7294 9.72362 10.6439C9.68786 10.5584 9.66945 10.4667 9.66945 10.3741C9.66945 10.2815 9.68786 10.1897 9.72362 10.1042C9.75938 10.0187 9.81178 9.94111 9.87779 9.87588C9.94327 9.81011 10.0212 9.75791 10.107 9.72228C10.1928 9.68666 10.2849 9.66832 10.3779 9.66832C10.4709 9.66832 10.5629 9.68666 10.6487 9.72228C10.7346 9.75791 10.8125 9.81011 10.8779 9.87588L12.3711 11.3635C12.4372 11.4287 12.4896 11.5063 12.5253 11.5918C12.5611 11.6773 12.5795 11.769 12.5795 11.8617C12.5795 11.9543 12.5611 12.046 12.5253 12.1315C12.4896 12.217 12.4372 12.2947 12.3711 12.3599Z" fill="#A8A8BE"/>
</svg>
