<svg width="15" height="15" viewBox="0 0 15 15" fill="none" xmlns="http://www.w3.org/2000/svg">
<path d="M14.49 5.66276L13.0725 5.19026L13.74 3.8552C13.8076 3.71569 13.8303 3.55818 13.8048 3.40517C13.7792 3.25217 13.7068 3.1104 13.5975 3.00015L12 1.40257C11.8891 1.29156 11.7463 1.21806 11.5916 1.19256C11.437 1.16706 11.2781 1.19031 11.1375 1.26006L9.8025 1.9276L9.33 0.510027C9.28012 0.36227 9.1854 0.234021 9.05902 0.142517C8.93265 0.0510126 8.78092 0.00150847 8.625 8.39788e-06H6.375C6.2178 -0.000741637 6.06435 0.0487695 5.93655 0.140274C5.80868 0.231778 5.71282 0.36077 5.6625 0.510027L5.19 1.9276L3.855 1.26006C3.71528 1.19256 3.558 1.17006 3.40485 1.19556C3.2517 1.22106 3.11025 1.29306 3 1.40257L1.4025 3.00015C1.29158 3.11115 1.21815 3.25366 1.19258 3.40817C1.167 3.56343 1.19063 3.72243 1.26 3.86268L1.9275 5.19774L0.510002 5.67027C0.362252 5.72052 0.233702 5.81502 0.142352 5.94103C0.0509273 6.06778 0.00112714 6.2193 2.13753e-06 6.37531V8.62541C-0.000372862 8.78292 0.0486021 8.93592 0.140102 9.06417C0.231677 9.19168 0.361052 9.2877 0.510002 9.33795L1.9275 9.81046L1.26 11.1455C1.19235 11.285 1.1697 11.4425 1.1952 11.5955C1.22078 11.7485 1.29315 11.8903 1.4025 12.0006L3 13.5981C3.11085 13.7092 3.25365 13.7827 3.40837 13.8082C3.56302 13.8337 3.72188 13.8104 3.8625 13.7407L5.1975 13.0731L5.67 14.4907C5.72033 14.6399 5.81617 14.7689 5.94405 14.8604C6.07185 14.9519 6.2253 15.0015 6.3825 15.0007H8.6325C8.7897 15.0015 8.94315 14.9519 9.07095 14.8604C9.19882 14.7689 9.29467 14.6399 9.345 14.4907L9.8175 13.0731L11.1525 13.7407C11.2913 13.8067 11.4471 13.8284 11.5987 13.8029C11.7502 13.7774 11.8903 13.7062 12 13.5981L13.5975 12.0006C13.7084 11.8896 13.7818 11.7471 13.8074 11.5925C13.833 11.4373 13.8094 11.2783 13.74 11.138L13.0725 9.80297L14.49 9.33045C14.6377 9.28019 14.7663 9.18569 14.8577 9.05969C14.9491 8.93293 14.9989 8.78142 15 8.62541V6.37531C15.0004 6.2178 14.9514 6.0648 14.8599 5.93654C14.7683 5.80904 14.6389 5.71302 14.49 5.66276ZM13.5 8.08538L12.6 8.38539C12.3931 8.4529 12.2032 8.5639 12.0436 8.71166C11.8839 8.85941 11.7583 9.04017 11.6756 9.24193C11.5928 9.44294 11.5548 9.65971 11.5642 9.87722C11.5736 10.0947 11.6302 10.307 11.73 10.5005L12.1575 11.3555L11.3325 12.1806L10.5 11.7306C10.3077 11.6346 10.097 11.5813 9.88222 11.5738C9.6675 11.567 9.45368 11.6053 9.25523 11.6878C9.05685 11.7703 8.87842 11.8948 8.73217 12.0523C8.58592 12.2098 8.47522 12.3966 8.4075 12.6006L8.1075 13.5006H6.915L6.615 12.6006C6.54787 12.3936 6.4365 12.2038 6.28867 12.0441C6.14085 11.8843 5.96002 11.759 5.7588 11.6758C5.55757 11.5933 5.34083 11.5551 5.1234 11.5648C4.90605 11.5738 4.69335 11.6308 4.5 11.7306L3.645 12.1581L2.82 11.333L3.27 10.5005C3.36983 10.307 3.42638 10.0947 3.43575 9.87722C3.4452 9.65971 3.40718 9.44294 3.32438 9.24193C3.24165 9.04017 3.1161 8.85941 2.95642 8.71166C2.79682 8.5639 2.60693 8.4529 2.4 8.38539L1.5 8.08538V6.91533L2.4 6.61532C2.60693 6.54782 2.79682 6.43682 2.95642 6.28906C3.1161 6.1413 3.24165 5.96054 3.32438 5.75878C3.40718 5.55777 3.4452 5.341 3.43575 5.12349C3.42638 4.90598 3.36983 4.69373 3.27 4.50022L2.8425 3.66769L3.6675 2.84265L4.5 3.27015C4.69335 3.3699 4.90605 3.42691 5.1234 3.43591C5.34083 3.44566 5.55757 3.40743 5.7588 3.32492C5.96002 3.24167 6.14085 3.11639 6.28867 2.95664C6.4365 2.79688 6.54787 2.60714 6.615 2.40013L6.915 1.50008H8.085L8.385 2.40013C8.45212 2.60714 8.5635 2.79688 8.71132 2.95664C8.85915 3.11639 9.03998 3.24167 9.2412 3.32492C9.44243 3.40743 9.65925 3.44566 9.8766 3.43591C10.0939 3.42691 10.3066 3.3699 10.5 3.27015L11.355 2.84265L12.18 3.66769L11.73 4.50022C11.6341 4.69223 11.5808 4.90299 11.5735 5.11825C11.5661 5.33276 11.605 5.54652 11.6875 5.74528C11.77 5.94329 11.8942 6.12179 12.0516 6.26805C12.209 6.4143 12.3961 6.52532 12.6 6.59282L13.5 6.89283V8.08538ZM7.5 4.50022C6.90667 4.50022 6.32662 4.67648 5.83327 5.00575C5.33992 5.33577 4.9554 5.80377 4.72838 6.35205C4.50128 6.90033 4.44188 7.50336 4.55768 8.08538C4.6734 8.66741 4.95915 9.20219 5.3787 9.62146C5.79825 10.0415 6.33278 10.3272 6.9147 10.4427C7.4967 10.5583 8.09985 10.499 8.64802 10.2725C9.1962 10.0452 9.6648 9.66045 9.99442 9.16692C10.324 8.6734 10.5 8.09364 10.5 7.50036C10.5 6.70457 10.1839 5.94178 9.6213 5.37926C9.05872 4.81598 8.29567 4.50022 7.5 4.50022ZM7.5 9.00043C7.2033 9.00043 6.91335 8.91267 6.66668 8.74766C6.42 8.58265 6.2277 8.34866 6.11415 8.07415C6.00067 7.80038 5.97097 7.49885 6.0288 7.20783C6.0867 6.91682 6.22958 6.64907 6.43935 6.43981C6.64913 6.2298 6.91642 6.08729 7.20735 6.02879C7.49835 5.97103 7.79992 6.00104 8.07405 6.1143C8.3481 6.2283 8.5824 6.42031 8.74717 6.66707C8.91202 6.91384 9 7.20334 9 7.50036C9 7.89788 8.84197 8.27964 8.56065 8.56091C8.27932 8.84217 7.8978 9.00043 7.5 9.00043Z" fill="white"/>
</svg>
