<svg width="18" height="15" viewBox="0 0 18 15" fill="none" xmlns="http://www.w3.org/2000/svg">
<path d="M17.9249 6.83762C16.1075 2.61809 12.6887 0 9 0C5.31129 0 1.89248 2.61809 0.0751101 6.83762C0.0255704 6.95113 0 7.07364 0 7.19749C0 7.32134 0.0255704 7.44386 0.0751101 7.55737C1.89248 11.7769 5.31129 14.395 9 14.395C12.6887 14.395 16.1075 11.7769 17.9249 7.55737C17.9744 7.44386 18 7.32134 18 7.19749C18 7.07364 17.9744 6.95113 17.9249 6.83762ZM9 12.5956C6.14799 12.5956 3.44893 10.5353 1.89248 7.19749C3.44893 3.85965 6.14799 1.79937 9 1.79937C11.852 1.79937 14.5511 3.85965 16.1075 7.19749C14.5511 10.5353 11.852 12.5956 9 12.5956ZM9 3.59875C8.28823 3.59875 7.59245 3.80981 7.00064 4.20524C6.40883 4.60068 5.94757 5.16273 5.67519 5.82031C5.40281 6.4779 5.33154 7.20148 5.4704 7.89957C5.60926 8.59766 5.95201 9.2389 6.4553 9.74219C6.9586 10.2455 7.59983 10.5882 8.29792 10.7271C8.99601 10.8659 9.7196 10.7947 10.3772 10.5223C11.0348 10.2499 11.5968 9.78866 11.9922 9.19685C12.3877 8.60504 12.5987 7.90926 12.5987 7.19749C12.5987 6.24304 12.2196 5.32769 11.5447 4.65279C10.8698 3.9779 9.95445 3.59875 9 3.59875ZM9 8.99686C8.64412 8.99686 8.29623 8.89133 8.00032 8.69361C7.70442 8.4959 7.47379 8.21487 7.3376 7.88608C7.20141 7.55729 7.16577 7.1955 7.2352 6.84645C7.30463 6.49741 7.476 6.17679 7.72765 5.92514C7.9793 5.6735 8.29992 5.50212 8.64896 5.43269C8.998 5.36326 9.3598 5.3989 9.68859 5.53509C10.0174 5.67128 10.2984 5.90191 10.4961 6.19781C10.6938 6.49372 10.7994 6.84161 10.7994 7.19749C10.7994 7.67472 10.6098 8.13239 10.2723 8.46984C9.9349 8.80729 9.47722 8.99686 9 8.99686Z" fill="#BFBFD9"/>
</svg>
