<svg width="16" height="16" viewBox="0 0 16 16" fill="none" xmlns="http://www.w3.org/2000/svg">
<rect width="16" height="16" rx="8" fill="#FF6C6C"/>
<path d="M8.94387 8.00273L11.8105 5.14273C11.9361 5.01719 12.0066 4.84693 12.0066 4.66939C12.0066 4.49186 11.9361 4.3216 11.8105 4.19606C11.685 4.07053 11.5147 4 11.3372 4C11.1597 4 10.9894 4.07053 10.8639 4.19606L8.00387 7.06273L5.14387 4.19606C5.01833 4.07053 4.84807 4 4.67053 4C4.493 4 4.32273 4.07053 4.1972 4.19606C4.07166 4.3216 4.00114 4.49186 4.00114 4.66939C4.00114 4.84693 4.07166 5.01719 4.1972 5.14273L7.06387 8.00273L4.1972 10.8627C4.13471 10.9247 4.08512 10.9984 4.05127 11.0797C4.01743 11.1609 4 11.2481 4 11.3361C4 11.4241 4.01743 11.5112 4.05127 11.5924C4.08512 11.6737 4.13471 11.7474 4.1972 11.8094C4.25917 11.8719 4.33291 11.9215 4.41415 11.9553C4.49539 11.9892 4.58252 12.0066 4.67053 12.0066C4.75854 12.0066 4.84568 11.9892 4.92692 11.9553C5.00816 11.9215 5.08189 11.8719 5.14387 11.8094L8.00387 8.94273L10.8639 11.8094C10.9258 11.8719 10.9996 11.9215 11.0808 11.9553C11.1621 11.9892 11.2492 12.0066 11.3372 12.0066C11.4252 12.0066 11.5123 11.9892 11.5936 11.9553C11.6748 11.9215 11.7486 11.8719 11.8105 11.8094C11.873 11.7474 11.9226 11.6737 11.9565 11.5924C11.9903 11.5112 12.0077 11.4241 12.0077 11.3361C12.0077 11.2481 11.9903 11.1609 11.9565 11.0797C11.9226 10.9984 11.873 10.9247 11.8105 10.8627L8.94387 8.00273Z" fill="white"/>
</svg>
