<svg width="14" height="14" viewBox="0 0 14 14" fill="none" xmlns="http://www.w3.org/2000/svg">
<path d="M12.2119 9.21136H9.12315C8.94232 9.21136 8.76888 9.2832 8.64101 9.41106C8.51314 9.53893 8.4413 9.71235 8.4413 9.89318C8.4413 10.074 8.51314 10.2474 8.64101 10.3753C8.76888 10.5032 8.94232 10.575 9.12315 10.575H10.7596C10.0075 11.361 9.03752 11.9041 7.97435 12.1346C6.91118 12.3651 5.80337 12.2725 4.79325 11.8686C3.78314 11.4647 2.91687 10.768 2.30574 9.86807C1.69461 8.96812 1.36655 7.906 1.3637 6.81818C1.3637 6.63735 1.29186 6.46393 1.16399 6.33606C1.03612 6.2082 0.862688 6.13636 0.68185 6.13636C0.501012 6.13636 0.327581 6.2082 0.199709 6.33606C0.0718375 6.46393 0 6.63735 0 6.81818C0.00360471 8.14964 0.396987 9.4509 1.1316 10.5614C1.86621 11.6719 2.90991 12.543 4.13388 13.0672C5.35785 13.5914 6.70854 13.7458 8.01925 13.5113C9.32996 13.2769 10.5433 12.6638 11.5096 11.7477V12.9545C11.5096 13.1354 11.5815 13.3088 11.7093 13.4367C11.8372 13.5645 12.0106 13.6364 12.1915 13.6364C12.3723 13.6364 12.5457 13.5645 12.6736 13.4367C12.8015 13.3088 12.8733 13.1354 12.8733 12.9545V9.88636C12.8716 9.71021 12.8018 9.54154 12.6785 9.4157C12.5552 9.28987 12.388 9.21664 12.2119 9.21136ZM6.8185 0C5.0705 0.00498559 3.39117 0.681078 2.12737 1.88864V0.681818C2.12737 0.500989 2.05553 0.327566 1.92766 0.1997C1.79979 0.0718342 1.62636 0 1.44552 0C1.26468 0 1.09125 0.0718342 0.963381 0.1997C0.83551 0.327566 0.763672 0.500989 0.763672 0.681818V3.75C0.763672 3.93083 0.83551 4.10425 0.963381 4.23212C1.09125 4.35998 1.26468 4.43182 1.44552 4.43182H4.51385C4.69469 4.43182 4.86812 4.35998 4.99599 4.23212C5.12386 4.10425 5.1957 3.93083 5.1957 3.75C5.1957 3.56917 5.12386 3.39575 4.99599 3.26788C4.86812 3.14002 4.69469 3.06818 4.51385 3.06818H2.87741C3.62912 2.28264 4.59846 1.73966 5.66099 1.50894C6.72352 1.27822 7.83077 1.37028 8.8406 1.77332C9.85043 2.17635 10.7168 2.87196 11.3284 3.77087C11.9401 4.66977 12.2691 5.73094 12.2733 6.81818C12.2733 6.99901 12.3451 7.17243 12.473 7.3003C12.6009 7.42817 12.7743 7.5 12.9552 7.5C13.136 7.5 13.3094 7.42817 13.4373 7.3003C13.5652 7.17243 13.637 6.99901 13.637 6.81818C13.637 5.92281 13.4606 5.0362 13.118 4.20898C12.7753 3.38176 12.2731 2.63013 11.6399 1.997C11.0068 1.36387 10.2551 0.861649 9.42783 0.519003C8.60057 0.176358 7.71392 0 6.8185 0Z" fill="#A8A8BE"/>
</svg>
